<svg version="1" xmlns="http://www.w3.org/2000/svg" width="1440" height="1440" viewBox="0 0 1080.000000 1080.000000"><path d="M358.5 403.9c-23.9 4.3-42.1 13.5-57.6 29-16.4 16.5-26.6 37.6-31.6 65.1-2.5 13.6-2.4 45.8.1 59.5 9.6 53.1 41.7 86.1 91.3 94.1 11.6 1.8 33.6 1.8 44.8-.2 44.7-7.7 75-36.4 82.9-78.4 1.6-8.1 1.6-8.6-.2-11l-1.9-2.5-26-.3-25.9-.2-1.2 5.9c-2.7 13.2-12.3 26.6-23.4 32.6-15.6 8.5-39 8.5-53.5-.1-12.1-7.1-22.7-22.2-26.7-37.9-4.4-17.5-5.1-39.5-1.7-56.1 6.6-32.3 24.4-50.4 51.1-52.1 26.6-1.6 47.6 14.1 53.7 40.4l1.7 7.3h51.2l2.2-2.9c1.9-2.7 2-3.4 1.1-9.3-5.3-33-23.5-58-53.4-73-21.1-10.6-51.2-14.5-77-9.9zM879.9 403.1c-35.7 5.2-62.4 24.7-71.6 52.3-2.5 7.3-2.7 9.6-2.8 22.6 0 15.8.8 19.7 6.7 31.4 7.3 14.7 22.8 26.6 43.5 33.6 5.1 1.7 19.5 5.3 32 8.1 25 5.4 30.3 6.9 37.8 10.6 9.3 4.6 13.6 10.2 13.7 18.2.1 16.3-17.2 26.7-42.7 25.7-22.5-.9-38.7-11.7-41.1-27.3l-.6-4.3H829c-24.6 0-25.8.1-27.5 2-2.3 2.5-2.2 8.2.2 18 7.3 30.4 31.2 50 69.5 57 15.4 2.9 45.1 2.2 59.9-1.3 35.6-8.5 58.5-29.7 64.5-59.7 2-10.1 1.5-27.4-1.2-36-5.4-17.8-17.2-30.5-36.8-39.5-10-4.6-20.9-7.8-45.1-13-29-6.2-37.8-9.3-44.3-15.4-4-3.9-5.2-6.8-5.2-12.8 0-13.4 12.5-22.8 32-24 14.2-.9 26.2 2.5 34.5 9.8 4.2 3.7 8.5 11.8 8.5 16.1 0 6-1 5.8 25.9 5.8h24.8l2.3-2.5c2-2.1 2.2-3 1.6-7.7-4.8-37.3-30.3-61-72.6-67.4-10.2-1.5-30.9-1.7-40.1-.3zM517.2 408.3l-2.2 2.3v234.1l2.3 2.1c2.2 2.1 3.1 2.2 24.3 2.2 21.6 0 22.1 0 24.1-2.3 1.9-2.2 2-3.5 1.9-70-.1-37.4.2-68.1.5-68.3.4-.2.9.2 1.2.9.3.6 10.7 26.2 23.2 56.7 12.4 30.5 25 61.2 27.8 68.2l5.2 12.8 18.4-.3 18.5-.2 3.6-9c2.1-5 14.6-35.8 28-68.5 13.3-32.7 24.6-59.9 25.1-60.5.5-.5.9 27.4.9 67.6v68.6l2.3 2.1c2.2 2.1 3.1 2.2 24.4 2.2 20.8 0 22.1-.1 23.8-2 1.8-2 1.9-7.1 1.9-119.2.1-111.9 0-117.3-1.7-119.5l-1.8-2.3h-60.5l-31.9 79.5c-17.6 43.7-32.2 79.5-32.6 79.5-.7 0-5.6-11.9-40.7-99.7L579.5 406h-60.2l-2.1 2.3zM158.5 463.1C106.9 466.8 75.8 506 78.3 564c1.8 41.3 21.2 70.8 54.3 82.9 27.8 10.1 63.3 7 86.2-7.5 7.7-4.9 17.8-15.5 22.5-23.4 4.6-7.9 8.4-19.6 9.3-28.5 1.1-10.8 1.9-10.5-27.2-10.5h-24.2l-.7 4.2c-1.6 10.1-7.4 18.6-15.6 23-3.7 1.9-5.9 2.3-13.9 2.3-8.2 0-10.2-.3-14.4-2.5-12.9-6.6-19.6-22.1-19.7-45.5-.1-7.2.5-14.9 1.4-19.2 4-18.6 15.1-30 29.9-30.8 16.4-.8 27.6 7.8 31.6 24.3l1.7 7.2h47.2l2.3-2.5c2-2.2 2.2-3 1.6-8.5-2.4-20.8-14.1-40.1-31.6-52-16.2-11-36.2-15.6-60.5-13.9z"/></svg>